<?xml version="1.0" standalone="no"?><!DOCTYPE svg PUBLIC "-//W3C//DTD SVG 1.1//EN"
        "http://www.w3.org/Graphics/SVG/1.1/DTD/svg11.dtd">
<svg class="icon" width="200px" height="200.00px" viewBox="0 0 1024 1024" version="1.1"
     xmlns="http://www.w3.org/2000/svg">
    <path d="M511.7 510.3m-447.7 0a447.7 447.7 0 1 0 895.4 0 447.7 447.7 0 1 0-895.4 0Z" fill="#391402"/>
    <path d="M511.3 510.3m-417.3 0a417.3 417.3 0 1 0 834.6 0 417.3 417.3 0 1 0-834.6 0Z" fill="#D5E03C"/>
    <path d="M488.1 334.7l26.8-128.4 32 140.7 55.6-75.4 6.4 46.6 79.9-60.1-39 131.1 99.8-40.3-39.7 64.6h77.4l-68.4 63.3 134.9 20.5L709.9 542l82.5 64.6-141.3 16.6 38.4 143.2-90.8-63.4-1.3 39.1-42.9-39.1-39.6 117.8-39.6-110.6-28.2 37.7-7.6-55.6-95.3 72.9 23-101.7-62 28.1 44.7-75.4-113.8-8.3 62.7-50.5-127.2-38.3 163-18.7-83.1-83.7 125.3-4.5-81.2-135.5L451 359.8l-9.6-78.7z"
          fill="#F0F38C"/>
    <path d="M506 417a9.1 21.9 0 1 0 18.2 0 9.1 21.9 0 1 0-18.2 0Z" fill="#2D1E00"/>
    <path d="M506 609.4a9.1 21.9 0 1 0 18.2 0 9.1 21.9 0 1 0-18.2 0Z" fill="#2D1E00"/>
    <path d="M537.884735 443.346645a9.1 21.9 20.64 1 0 15.439283-40.988639 9.1 21.9 20.64 1 0-15.439283 40.988639Z"
          fill="#2D1E00"/>
    <path d="M470.053858 623.350019a9.1 21.9 20.64 1 0 15.439283-40.988639 9.1 21.9 20.64 1 0-15.439283 40.988639Z"
          fill="#2D1E00"/>
    <path d="M564.292569 460.106646a9.1 21.9 44.999 1 0 30.970737-30.971818 9.1 21.9 44.999 1 0-30.970737 30.971818Z"
          fill="#2D1E00"/>
    <path d="M428.336402 596.164464a9.1 21.9 44.999 1 0 30.970736-30.971817 9.1 21.9 44.999 1 0-30.970736 30.971817Z"
          fill="#2D1E00"/>
    <path d="M581.533518 481.561565a9.1 21.9 67.578 1 0 40.488705-16.70643 9.1 21.9 67.578 1 0-40.488705 16.70643Z"
          fill="#2D1E00"/>
    <path d="M403.643398 554.98141a9.1 21.9 67.578 1 0 40.488704-16.70643 9.1 21.9 67.578 1 0-40.488704 16.70643Z"
          fill="#2D1E00"/>
    <path d="M586.9 515.5a21.9 9.1 0 1 0 43.8 0 21.9 9.1 0 1 0-43.8 0Z" fill="#2D1E00"/>
    <path d="M394.5 515.5a21.9 9.1 0 1 0 43.8 0 21.9 9.1 0 1 0-43.8 0Z" fill="#2D1E00"/>
    <path d="M421.879704 485.899707a21.9 9.1 20.64 1 0 6.41541-17.031809 21.9 9.1 20.64 1 0-6.41541 17.031809Z"
          fill="#2D1E00"/>
    <path d="M601.883079 553.730584a21.9 9.1 20.64 1 0 6.41541-17.031808 21.9 9.1 20.64 1 0-6.41541 17.031808Z"
          fill="#2D1E00"/>
    <path d="M440.445834 449.63545a21.9 9.1 44.999 1 0 12.869118-12.869568 21.9 9.1 44.999 1 0-12.869118 12.869568Z"
          fill="#2D1E00"/>
    <path d="M576.432236 585.662622a21.9 9.1 44.999 1 0 12.869118-12.869568 21.9 9.1 44.999 1 0-12.869118 12.869568Z"
          fill="#2D1E00"/>
    <path d="M467.078565 424.781554a21.9 9.1 67.578 1 0 16.824074-6.941941 21.9 9.1 67.578 1 0-16.824074 6.941941Z"
          fill="#2D1E00"/>
    <path d="M540.459886 602.579311a21.9 9.1 67.578 1 0 16.824073-6.941942 21.9 9.1 67.578 1 0-16.824073 6.941942Z"
          fill="#2D1E00"/>
</svg>
