<?xml version="1.0" standalone="no"?><!DOCTYPE svg PUBLIC "-//W3C//DTD SVG 1.1//EN" "http://www.w3.org/Graphics/SVG/1.1/DTD/svg11.dtd"><svg class="icon" width="200px" height="200.00px" viewBox="0 0 1024 1024" version="1.1" xmlns="http://www.w3.org/2000/svg"><path d="M73.4 428.3C121 187.8 355.4 30.9 595.9 78.5c240.5 47.6 397.5 282 349.8 522.5-47.6 240.5-282 397.5-522.5 349.8-240.5-47.6-397.4-282-349.8-522.5z m31.7 6.3C60.9 657.6 206.4 875 429.5 919.2c223 44.1 440.5-101.4 484.6-324.5 44.2-223-101.4-440.4-324.4-484.6C366.6 66 149.2 211.5 105.1 434.6z" fill="#FFDA37" /><path d="M99.1 433.4C54.3 660.1 201.6 880.2 428.3 925.1 655 969.9 875.1 822.6 920 595.9c44.9-226.7-102.5-446.8-329.2-491.7C364.2 59.4 144 206.7 99.1 433.4z" fill="#FFFFFF" /><path d="M460.3 519.5c-38.2 10.7-245.9 46.3-279.1 47.6-36.2 1.5-62-15.9-51.6-104.3 9.4-80 38.7-108 82.2-93.3 43.5 14.7 184.6 84.5 212 99.9 27.3 15.5 71.2 40.5 36.5 50.1zM294.4 385.1c-25.1-14.8-83.8-50.6-84.1-79.5-0.3-28.9 32.1-78.1 69.3-103.7 37.2-25.6 77.6-31.9 115.3 22.1 37.8 53.9 78 186.1 84.6 213.2 6.7 27.1 6.2 34.8-44.1 13.8-50.4-21-106.8-45.6-141-65.9zM501 430.3c-11-24.2-63.4-148-75-190.8-11.6-42.9-27.8-76.6 5.4-93.3 33.2-16.6 164.4-16.6 185.8 13.6 21.4 30.3 11.4 65.8-6.4 110.4-17.8 44.6-64.6 190.4-74.6 189.5-10-0.8-24.5-5.9-35.2-29.4zM570 461.9c-11.2-2.3-12.7-22.3 5.6-68.4 18.3-46.1 63-173.9 78.3-187.8 15.3-13.8 56.5-21.4 100.3 9.7 43.9 31 65.1 67.6 59.1 91.9-6 24.3-128.3 87.2-162.6 110.7-34.2 23.5-63.2 47.5-80.7 43.9zM569.2 501.3c18.1 1.3 74.3 5.5 138.6 10.3 64.3 4.8 173.2 26.3 182.1-15.1 8.9-41.4-12.2-151.9-71.6-141-59.5 10.9-199.9 99.8-225.9 113.2-26.1 13.3-37.3 31.6-23.2 32.6zM814.8 714.6c-18.1 1.5-71.5-49.3-142.9-106.2-71.4-56.9-106.4-78.5-91.9-86.1 14.6-7.6 112.6 7.5 186.8 13.9 74.3 6.5 106.8 2.1 115.4 27.2 8.7 24.9-6.6 146.1-67.4 151.2zM685.1 859.7c-32.6 11.9-71.1 8.6-88.1-45.5s-56.7-234.8-53.7-251.7c3.1-17 31.1-13 65.6 16.3 34.6 29.3 183.5 137.9 185.1 178.1 1.8 40.3-34.6 75.9-108.9 102.8zM554.4 886.3c-23.7 10.2-89.6 14.3-150.7-11.2-61-25.5-69.7-48.7-53.8-79.3 15.9-30.6 130.6-209.3 147.6-232.9 17-23.6 32.3-10 40 29.3 7.8 39.2 58.3 276.2 16.9 294.1zM471.3 587.2c-29.9 36.8-150.5 190-163.1 198.5-12.6 8.6-61.4 14.6-103.9-51.7-42.5-66.3-46-108.6-28.6-130.2 17.5-21.6 114.8-29.7 180.2-43.9 65.4-14.2 121.7-33 131.9-24.6 10.3 8.5 6 24.3-16.5 51.9z" fill="#FFDA37" /></svg>