<?xml version="1.0" standalone="no"?><!DOCTYPE svg PUBLIC "-//W3C//DTD SVG 1.1//EN" "http://www.w3.org/Graphics/SVG/1.1/DTD/svg11.dtd"><svg class="icon" width="200px" height="200.00px" viewBox="0 0 1024 1024" version="1.1" xmlns="http://www.w3.org/2000/svg"><path d="M513.8 511.2m-446.5 0a446.5 446.5 0 1 0 893 0 446.5 446.5 0 1 0-893 0Z" fill="#74567C" /><path d="M510.6 514.4m-412.4 0a412.4 412.4 0 1 0 824.8 0 412.4 412.4 0 1 0-824.8 0Z" fill="#EF6A83" /><path d="M595.7 253.1v-1.5c0.2-12-2.3-23.6-6.8-33.6-13.3-32.7-44.8-55.7-81.5-55.7-35.6 0-66.3 21.7-80.2 52.9-5.9 11.7-8.9 25.8-8 40.3 0.4 15.8 4.7 30.6 12 43.4l23.8 68.4 14.5 45.7c15.1 47.7 68.5 46.5 82.2-1.9l12.4-43.8 21.9-72.9c6.2-12.3 9.7-26.4 9.7-41.3zM424.7 771.1v1.5c-0.2 12 2.3 23.6 6.8 33.6 13.3 32.7 44.8 55.7 81.5 55.7 35.6 0 66.3-21.7 80.2-52.9 5.9-11.7 8.9-25.8 8-40.3-0.4-15.8-4.7-30.6-12-43.4l-23.8-68.4-14.5-45.7c-15.1-47.7-68.5-46.5-82.2 1.9l-12.4 43.8-21.9 72.9c-6.2 12.4-9.7 26.4-9.7 41.3zM771.3 598.7h1.5c12 0.2 23.6-2.3 33.6-6.8 32.7-13.3 55.7-44.8 55.7-81.5 0-35.6-21.7-66.3-52.9-80.2-11.7-5.9-25.8-8.9-40.3-8-15.8 0.4-30.6 4.7-43.4 12L657 458.1l-45.7 14.5c-47.7 15.1-46.5 68.5 1.9 82.2l43.8 12.4 72.9 21.9c12.4 6.1 26.5 9.6 41.4 9.6zM776.5 376.9c0.4-0.3 0.7-0.7 1-1 8.9-8.1 15.6-17.8 19.9-28 14.7-32.1 10-70.8-15.1-97.5-24.4-26-61.2-33.5-93.5-22.3-12.6 3.7-25 11.2-34.9 21.8-11.2 11.1-19.1 24.4-23.4 38.5L597 352.6l-23.4 41.8c-24.5 43.7 13 81.8 57.6 58.6l40.5-20.9 68.1-34c13.2-3.9 25.8-11 36.7-21.2zM247.4 647.3c-0.4 0.3-0.7 0.7-1 1-8.9 8.1-15.6 17.8-19.9 28-14.7 32.1-10 70.8 15.1 97.5 24.4 26 61.2 33.5 93.5 22.3 12.6-3.7 25-11.2 34.9-21.8 11.2-11.1 19.1-24.4 23.4-38.5l33.5-64.2 23.4-41.8c24.5-43.7-13-81.8-57.6-58.6l-40.5 20.9-68.1 34c-13.2 4-25.9 11-36.7 21.2zM369.7 250.2l-1-1c-8.3-8.7-18.1-15.2-28.4-19.2-32.5-14-71-8.3-97.2 17.4-25.4 25-32 61.9-20.1 94 4 12.5 11.8 24.7 22.6 34.4 11.4 11 24.8 18.5 39 22.5l64.9 32 42.4 22.5c44.2 23.4 81.4-14.9 57.3-59l-21.9-40-35.5-67.3c-4.3-13.3-11.6-25.7-22.1-36.3zM653 773.1l1 1c8.3 8.7 18.1 15.2 28.4 19.2 32.5 14 71 8.3 97.2-17.4 25.4-25 32-61.9 20.1-94-4-12.5-11.8-24.7-22.6-34.4-11.4-11-24.8-18.5-39-22.5l-64.9-32-42.4-22.5c-44.2-23.4-81.4 14.9-57.3 59l21.9 40 35.5 67.3c4.3 13.2 11.7 25.7 22.1 36.3zM253.3 427.7h-1.5c-12-0.2-23.6 2.3-33.6 6.8-32.7 13.3-55.7 44.8-55.7 81.5 0 35.6 21.7 66.3 52.9 80.2 11.7 5.9 25.8 8.9 40.3 8 15.8-0.4 30.6-4.7 43.4-12l68.4-23.8 45.7-14.5c47.7-15.1 46.5-68.5-1.9-82.2l-43.8-12.4-72.9-21.9c-12.4-6.2-26.4-9.7-41.3-9.7z" fill="#FFFAE3" /></svg>