<?xml version="1.0" standalone="no"?><!DOCTYPE svg PUBLIC "-//W3C//DTD SVG 1.1//EN" "http://www.w3.org/Graphics/SVG/1.1/DTD/svg11.dtd"><svg class="icon" width="200px" height="200.00px" viewBox="0 0 1024 1024" version="1.1" xmlns="http://www.w3.org/2000/svg"><path d="M960.4 509.6c0 249-200.4 408.2-448.3 450.7-250.1-43.5-447-201.7-447-450.7s153.2-402.6 447-386c238.9-78.4 448.3 137 448.3 386z" fill="#FC97B1" /><path d="M527.5 136.3c-5.3 7.4-12 11.7-14.9 9.7-2.9-2.1-0.9-9.8 4.5-17.2 5.3-7.4 9.5-6.5 14.9-9.7 3-1.7 0.9 9.8-4.5 17.2z" fill="#007A11" /><path d="M509.1 148.8s-3.5-42.3 9.2-55.2l5.5 3.8s-8 1.8-10.3 53.7l-4.4-2.3z" fill="#120009" /><path d="M937.5 510.1c0 236.5-190.3 387.8-425.8 428.1C274.1 897 87.1 746.6 87.1 510.1s145.5-382.4 424.6-366.6C738.6 69 937.5 273.6 937.5 510.1z" fill="#FFE9EB" /><path d="M615.7 492.4c0 80.7-30.7 116.6-103.6 147.5-54.5 0-93.8-66.8-93.8-147.5 0-72.1 34.5-111.8 81.3-137.5 10.8-5.9 23.8-5.9 34.6 0.1 47.6 26.2 81.5 65.2 81.5 137.4z" fill="#84515D" /><path d="M507.2 370.2m-4.2 0a4.2 4.2 0 1 0 8.4 0 4.2 4.2 0 1 0-8.4 0Z" fill="#602330" /><path d="M554.5 416m-4.2 0a4.2 4.2 0 1 0 8.4 0 4.2 4.2 0 1 0-8.4 0Z" fill="#602330" /><path d="M454 430.3m-4.2 0a4.2 4.2 0 1 0 8.4 0 4.2 4.2 0 1 0-8.4 0Z" fill="#602330" /><path d="M542 452.4m-4.2 0a4.2 4.2 0 1 0 8.4 0 4.2 4.2 0 1 0-8.4 0Z" fill="#602330" /><path d="M480.1 563.2m-4.2 0a4.2 4.2 0 1 0 8.4 0 4.2 4.2 0 1 0-8.4 0Z" fill="#602330" /><path d="M585.8 535.3m-4.2 0a4.2 4.2 0 1 0 8.4 0 4.2 4.2 0 1 0-8.4 0Z" fill="#602330" /><path d="M536 594.3m-4.2 0a4.2 4.2 0 1 0 8.4 0 4.2 4.2 0 1 0-8.4 0Z" fill="#602330" /><path d="M536 395.7m-4.2 0a4.2 4.2 0 1 0 8.4 0 4.2 4.2 0 1 0-8.4 0Z" fill="#602330" /><path d="M482.9 455.8m-4.2 0a4.2 4.2 0 1 0 8.4 0 4.2 4.2 0 1 0-8.4 0Z" fill="#602330" /><path d="M509.4 416m-4.2 0a4.2 4.2 0 1 0 8.4 0 4.2 4.2 0 1 0-8.4 0Z" fill="#602330" /><path d="M456.3 476.1m-4.2 0a4.2 4.2 0 1 0 8.4 0 4.2 4.2 0 1 0-8.4 0Z" fill="#602330" /><path d="M525.7 458.7m-4.2 0a4.2 4.2 0 1 0 8.4 0 4.2 4.2 0 1 0-8.4 0Z" fill="#602330" /><path d="M472.6 518.8m-4.2 0a4.2 4.2 0 1 0 8.4 0 4.2 4.2 0 1 0-8.4 0Z" fill="#602330" /><path d="M550.3 486.4m-4.2 0a4.2 4.2 0 1 0 8.4 0 4.2 4.2 0 1 0-8.4 0Z" fill="#602330" /><path d="M494.8 587.5m-4.2 0a4.2 4.2 0 1 0 8.4 0 4.2 4.2 0 1 0-8.4 0Z" fill="#602330" /><path d="M583 467m-4.2 0a4.2 4.2 0 1 0 8.4 0 4.2 4.2 0 1 0-8.4 0Z" fill="#602330" /><path d="M525.7 487.5m-4.2 0a4.2 4.2 0 1 0 8.4 0 4.2 4.2 0 1 0-8.4 0Z" fill="#602330" /><path d="M531.8 561.9m-4.2 0a4.2 4.2 0 1 0 8.4 0 4.2 4.2 0 1 0-8.4 0Z" fill="#602330" /><path d="M453.6 590.2m-4.2 0a4.2 4.2 0 1 0 8.4 0 4.2 4.2 0 1 0-8.4 0Z" fill="#602330" /><path d="M491.7 475.2m-4.2 0a4.2 4.2 0 1 0 8.4 0 4.2 4.2 0 1 0-8.4 0Z" fill="#602330" /><path d="M438.6 535.3m-4.2 0a4.2 4.2 0 1 0 8.4 0 4.2 4.2 0 1 0-8.4 0Z" fill="#602330" /><path d="M521.717563 96.982335a5.5 3.5 23.722 1 0 2.816095-6.408557 5.5 3.5 23.722 1 0-2.816095 6.408557Z" fill="#120009" /></svg>