<?xml version="1.0" standalone="no"?><!DOCTYPE svg PUBLIC "-//W3C//DTD SVG 1.1//EN" "http://www.w3.org/Graphics/SVG/1.1/DTD/svg11.dtd"><svg class="icon" width="200px" height="200.00px" viewBox="0 0 1024 1024" version="1.1" xmlns="http://www.w3.org/2000/svg"><path d="M464.2 887.6c0 10-19.6 21.4-29.6 21.4s-6.7-11.4-6.7-21.4c0-10-6.4-17.3 3.6-17.3s32.7 7.3 32.7 17.3zM547.5 868.3c0 10-19.6 21.4-29.6 21.4s-6.7-11.4-6.7-21.4c0-10-6.4-17.3 3.6-17.3s32.7 7.3 32.7 17.3z" fill="#ED9596" /><path d="M560.8 99.4l-19.6-24-9.3 24-13.3-35.2-18.9 33.9-29.8-10.7-15.8-6.9-11.3 17.6-35.3-21.8 0.2 0.5c10 12.4 26.2 43.4 41.8 80.9 5 11.9 9.4 23.4 13.2 34.1h104.1c2.3-11.6 5.1-24.2 8.5-37.3 11.3-44.4 24.6-80.8 32.6-90.4V64l-47.1 35.4z" fill="#C50C2B" /><path d="M511.5 564.9m-395.5 0a395.5 395.5 0 1 0 791 0 395.5 395.5 0 1 0-791 0Z" fill="#C03453" /><path d="M509.7 564.9m-373.2 0a373.2 373.2 0 1 0 746.4 0 373.2 373.2 0 1 0-746.4 0Z" fill="#EAEBC4" /><path d="M824.8 522.3c-16 272-255.5 172.4-268 156-48-62.7-37.3-97-37.3-216.7S536.2 245 556.8 245c9.5 0 70.1-0.1 131.5 26.6 9 3.9 3.7 28.2 12.5 33.4 11.4 6.6 36.8-5.5 47.3 3.5 47.3 40.3 83 106.1 76.7 213.8zM188.5 520c13 272.2 253.5 175.2 266.2 159 48.7-62.1 38.4-96.6 39.7-216.2 1.3-119.7-14.3-216.8-34.9-217.1-9.5-0.1-70.1-0.9-131.7 25.1-9 3.8-4 28.2-12.9 33.3-11.4 6.5-36.7-5.9-47.4 2.9-47.7 39.7-84.1 105.2-79 213z" fill="#CE373C" /><path d="M768.1 769.3c0 80.8-115.6 146.4-258.2 146.4s-258.2-65.5-258.2-146.4c0-44.3 77.5 3.9 132.3-23 45.2-22.2 47.3-59.5 128-89.3 52.9-1.3 0 46.9 124.9 82.7 62.1 17.7 131.2-16.5 131.2 29.6z" fill="#CE373C" /><path d="M364.5 328.1c0 10-4.1 28.5-14.2 28.5s-22.2-18.5-22.2-28.5 30.8-26.6 40.8-26.6-4.4 16.5-4.4 26.6zM303.9 354.5c0 10-19.6 21.4-29.6 21.4s-6.7-11.4-6.7-21.4-6.4-17.3 3.6-17.3 32.7 7.3 32.7 17.3zM436.5 620.7c0 10-4.1 28.5-14.2 28.5s-22.2-18.5-22.2-28.5 30.8-26.6 40.8-26.6-4.4 16.5-4.4 26.6zM375.9 647.1c0 10-19.6 21.4-29.6 21.4s-6.7-11.4-6.7-21.4c0-10-6.4-17.3 3.6-17.3s32.7 7.3 32.7 17.3zM479.7 539.9c0 10-19.6 21.4-29.6 21.4s-6.7-11.4-6.7-21.4c0-10-6.4-17.3 3.6-17.3s32.7 7.3 32.7 17.3zM401.7 524.1c0 10-19.6 21.4-29.6 21.4s-6.7-11.4-6.7-21.4c0-10-6.4-17.3 3.6-17.3s32.7 7.2 32.7 17.3zM627.1 478.1c0 10-19.6 21.4-29.6 21.4s-6.7-11.4-6.7-21.4-6.4-17.3 3.6-17.3 32.7 7.3 32.7 17.3zM787.3 584.2c0 10-19.6 21.4-29.6 21.4s-6.7-11.4-6.7-21.4c0-10-6.4-17.3 3.6-17.3 10 0.1 32.7 7.3 32.7 17.3zM648.7 784.9c0 10-19.6 21.4-29.6 21.4s-6.7-11.4-6.7-21.4c0-10-6.4-17.3 3.6-17.3 10.1 0 32.7 7.3 32.7 17.3zM482.2 828.3c0 10-19.6 21.4-29.6 21.4s-6.7-11.4-6.7-21.4c0-10-6.4-17.3 3.6-17.3s32.7 7.3 32.7 17.3zM566.7 603.6c0 10-19.6 21.4-29.6 21.4s-6.7-11.4-6.7-21.4c0-10-6.4-17.3 3.6-17.3s32.7 7.2 32.7 17.3zM233.9 545.2c-9.8-2.1-27.1-9.9-25-19.7 2.1-9.8 22.6-17.9 32.4-15.9 9.8 2.1 19.7 35.6 17.7 45.4-2 9.9-15.3-7.7-25.1-9.8zM325 427.5c-9.8-2.1-27.1-9.9-25-19.7 2.1-9.8 22.6-17.9 32.4-15.9 9.8 2.1 19.7 35.6 17.7 45.4s-15.3-7.7-25.1-9.8zM416 355.9c-9.8-2.1-27.1-9.9-25-19.7 2.1-9.8 22.6-17.9 32.4-15.9s19.7 35.6 17.7 45.4c-2.1 9.9-15.3-7.8-25.1-9.8zM291.4 504.5c-9.8-2.1-27.1-9.9-25-19.7 2.1-9.8 22.6-17.9 32.4-15.9 9.8 2.1 19.7 35.6 17.7 45.4-2 9.9-15.2-7.8-25.1-9.8zM224.2 440.3c-9.8-2.1-16.9-23.5-14.9-33.4 2.1-9.8 32.7-21 42.5-18.9 9.8 2.1 7.3 41.1 5.2 50.9s-23 3.4-32.8 1.4zM406.3 472.2c-9.8-2.1-16.9-23.5-14.9-33.4 2.1-9.8 32.7-21 42.5-18.9s7.3 41.1 5.2 50.9c-2 9.9-23 3.5-32.8 1.4zM603 299.7c0 10-4.1 28.5-14.2 28.5-10 0-22.2-18.5-22.2-28.5s30.8-26.6 40.8-26.6c10.1 0-4.4 16.6-4.4 26.6zM654.5 327.5c-9.8-2.1-27.1-9.9-25-19.7s22.6-17.9 32.4-15.9c9.8 2.1 19.7 35.6 17.7 45.4s-15.3-7.7-25.1-9.8zM644.8 443.9c-9.8-2.1-16.9-23.5-14.9-33.4s32.7-21 42.5-18.9c9.8 2.1 7.3 41.1 5.2 50.9s-23 3.4-32.8 1.4zM665.6 533.3c0 10-4.1 28.5-14.2 28.5-10 0-22.2-18.5-22.2-28.5s30.8-26.6 40.8-26.6c10.2 0-4.4 16.6-4.4 26.6zM643.7 646.9c0 10-4.1 28.5-14.2 28.5-10 0-22.2-18.5-22.2-28.5s30.8-26.6 40.8-26.6c10.2 0-4.4 16.5-4.4 26.6zM412.3 770.5c0 10-4.1 28.5-14.2 28.5s-22.2-18.5-22.2-28.5 30.8-26.6 40.8-26.6-4.4 16.5-4.4 26.6zM317 802.5c0 10-4.1 28.5-14.2 28.5s-22.2-18.5-22.2-28.5 30.8-26.6 40.8-26.6-4.4 16.6-4.4 26.6zM717.1 561.1c-9.8-2.1-27.1-9.9-25-19.7 2.1-9.8 22.6-17.9 32.4-15.9s19.7 35.6 17.7 45.4c-2 9.9-15.3-7.7-25.1-9.8zM559.1 399.3c-9.8-2.1-27.1-9.9-25-19.7 2.1-9.8 22.6-17.9 32.4-15.9s19.7 35.6 17.7 45.4-15.2-7.7-25.1-9.8zM707.4 677.5c-9.8-2.1-16.9-23.5-14.9-33.4 2.1-9.8 32.7-21 42.5-18.9s7.3 41.1 5.2 50.9c-1.9 9.8-23 3.4-32.8 1.4zM478.2 767.5c-9.8-2.1-16.9-23.5-14.9-33.4 2.1-9.8 32.7-21 42.5-18.9s7.3 41.1 5.2 50.9c-2 9.8-23 3.4-32.8 1.4zM366.2 878.5c-9.8-2.1-16.9-23.5-14.9-33.4 2.1-9.8 32.7-21 42.5-18.9 9.8 2.1 7.3 41.1 5.2 50.9s-23 3.5-32.8 1.4zM574.8 873.9c-9.8-2.1-16.9-23.5-14.9-33.4 2.1-9.8 32.7-21 42.5-18.9 9.8 2.1 7.3 41.1 5.2 50.9-2 9.8-23 3.4-32.8 1.4zM541.3 800.2c-9.8-2.1-16.9-23.5-14.9-33.4 2.1-9.8 32.7-21 42.5-18.9 9.8 2.1 7.3 41.1 5.2 50.9-1.9 9.9-23 3.5-32.8 1.4zM694.6 821c-9.8-2.1-16.9-23.5-14.9-33.4 2.1-9.8 32.7-21 42.5-18.9s7.3 41.1 5.2 50.9c-2 9.8-23 3.5-32.8 1.4zM566.3 566.2c-9.8-2.1-16.9-23.5-14.9-33.4 2.1-9.8 32.7-21 42.5-18.9 9.8 2.1 7.3 41.1 5.2 50.9s-23 3.5-32.8 1.4zM749.6 508.2c-9.8-2.1-16.9-23.5-14.9-33.4s32.7-21 42.5-18.9c9.8 2.1 7.3 41.1 5.2 50.9-2 9.8-23 3.4-32.8 1.4zM740.3 400.2c-9.8-2.1-16.9-23.5-14.9-33.4s32.7-21 42.5-18.9c9.8 2.1 7.3 41.1 5.2 50.9s-23 3.4-32.8 1.4zM297.8 594.5c-9.8-2.1-16.9-23.5-14.9-33.4 2.1-9.8 32.7-21 42.5-18.9 9.8 2.1 7.3 41.1 5.2 50.9-1.9 9.8-22.9 3.4-32.8 1.4zM277.9 666c-9.8-2.1-16.9-23.5-14.9-33.4 2.1-9.8 32.7-21 42.5-18.9s7.3 41.1 5.2 50.9c-2 9.9-23 3.5-32.8 1.4z" fill="#ED9596" /></svg>