<?xml version="1.0" standalone="no"?><!DOCTYPE svg PUBLIC "-//W3C//DTD SVG 1.1//EN" "http://www.w3.org/Graphics/SVG/1.1/DTD/svg11.dtd"><svg class="icon" width="200px" height="200.00px" viewBox="0 0 1024 1024" version="1.1" xmlns="http://www.w3.org/2000/svg"><path d="M576 156.1c-22.1 42.6-52.1 70.9-66.9 63.2-14.8-7.7-19.9-55.8 2.2-98.4 22.1-42.6 63.2-38.6 77.9-55.8 10.9-12.7 8.9 48.4-13.2 91z" fill="#419D20" /><path d="M513.7 141.9c1.6 31.6-6 57.8-17 58.3-11 0.6-30-25.1-31.7-56.8-1.6-31.6 23.1-43.1 25.7-57.8 2-10.8 21.4 24.7 23 56.3z" fill="#3A821C" /><path d="M568.4 220.6c-31.7-0.8-57.1-10.4-56.8-21.5 0.3-11 27.4-28 59.1-27.1 31.7 0.8 41.2 26.4 55.6 30.1 10.7 2.8-26.2 19.3-57.9 18.5z" fill="#9DCE7C" /><path d="M429.8 156.7c46 13.8 79.3 38 74.5 54-4.8 16-51.2 29.9-97.1 16.1s-49.7-55-69.3-66.2c-14.5-8.3 45.9-17.8 91.9-3.9z" fill="#419D20" /><path d="M494.5 152.2c5 31.3 0.3 58.1-10.6 59.8s-32.5-21.7-37.6-53c-5-31.3 18.3-45.4 19.3-60.3 0.8-11 23.9 22.2 28.9 53.5z" fill="#AADE8B" /><path d="M896.2 512.1c0 211.8-212.6 448.1-380.5 448.1S128 724 128 512.1s219.7-319 387.6-319 380.6 107.2 380.6 319z" fill="#E72D14" /><path d="M449.3 607.8a55.4 197.1 0 1 0 110.8 0 55.4 197.1 0 1 0-110.8 0Z" fill="#FE5037" /><path d="M421.7 616.9c0-60.5 8.6-114.2 22-148.2-26.6 10.9-47 72.4-47 146.7 0 73 19.7 133.7 45.6 146.1-12.5-34-20.6-86.2-20.6-144.6zM591.6 615.4c0 60.5-8.6 114.2-22 148.2 26.6-10.9 47-72.4 47-146.7 0-73-19.7-133.7-45.6-146.1 12.6 34 20.6 86.1 20.6 144.6z" fill="#D60F0C" /><path d="M883.2 422.5c-5 4.8-8.5 15.6-8.5 28.2 0 17.1 6.5 30.9 14.4 30.9 2.6 0 5-1.5 7.1-4-2.6-19.4-7-37.8-13-55.1z" fill="#E2AA53" /><path d="M680.92334 889.965166a7.5 13.5 30 1 0 13.5-23.382686 7.5 13.5 30 1 0-13.5 23.382686Z" fill="#FABD7E" /><path d="M156.879637 413.28347a7.5 13.5 30 1 0 13.5-23.382686 7.5 13.5 30 1 0-13.5 23.382686Z" fill="#FABD7E" /><path d="M183.9 709.6c1.2-1.3 2.4-2.8 3.4-4.5 3.7-6.5 3.8-13.4 0.3-15.4-3-1.8-7.8 0.5-11.4 5.2 2.5 4.9 5.1 9.8 7.7 14.7z" fill="#FABD7E" /></svg>