<?xml version="1.0" standalone="no"?><!DOCTYPE svg PUBLIC "-//W3C//DTD SVG 1.1//EN" "http://www.w3.org/Graphics/SVG/1.1/DTD/svg11.dtd"><svg class="icon" width="200px" height="200.00px" viewBox="0 0 1024 1024" version="1.1" xmlns="http://www.w3.org/2000/svg"><path d="M511.7 510.3m-447.7 0a447.7 447.7 0 1 0 895.4 0 447.7 447.7 0 1 0-895.4 0Z" fill="#1FA32C" /><path d="M741.6 127.7c-73.4 20.7-157.8 32.4-247.6 32.4-80.3 0-156.2-9.4-223.9-26.2-11.4 7.3-22.5 15.1-33.2 23.4 76.5 21.9 164 34.4 257.1 34.4 103 0 199.2-15.3 281.2-41.8-10.9-7.8-22.1-15.3-33.6-22.2zM279.5 893.4c73.4-20.7 157.8-32.4 247.6-32.4 80.3 0 156.2 9.4 223.9 26.2 11.4-7.3 22.5-15.1 33.2-23.4-76.5-21.9-164-34.4-257.1-34.4-103 0-199.2 15.3-281.2 41.8 10.8 7.8 22 15.2 33.6 22.2zM908.6 304c-4.8-9.2-9.9-18.1-15.3-26.9-89.7 39.3-206.4 63.1-334.1 63.1-163.8 0-309.6-39.1-403.3-100-6.2 8.1-12.1 16.4-17.8 25 99.4 65.1 251.1 106.7 421.1 106.7 133.1-0.1 255-25.6 349.4-67.9zM954.5 453.3c-1.6-11.4-3.6-22.7-6.1-33.8-91 72.3-250.3 120.3-431.6 120.3-187.8 0-352.1-51.5-441.2-128.2-2.7 11.2-4.9 22.5-6.7 34 97.6 76 261.8 125.8 447.9 125.8 179.7 0 339.1-46.5 437.7-118.1zM927.4 673.6c6.3-15.9 11.7-32.3 16.2-49.1-90.8 72.7-250.6 121-432.5 121s-341.7-48.3-432.5-121c4.5 16.8 9.9 33.1 16.2 49.1 99.4 63.3 249 103.6 416.3 103.6S828 736.9 927.4 673.6z" fill="#3B7E25" /><path d="M511.3 510.3m-417.3 0a417.3 417.3 0 1 0 834.6 0 417.3 417.3 0 1 0-834.6 0Z" fill="#FEFFFF" /><path d="M511.3 510.3m-393 0a393 393 0 1 0 786 0 393 393 0 1 0-786 0Z" fill="#FA3B40" /><path d="M512 502.7m-393 0a393 393 0 1 0 786 0 393 393 0 1 0-786 0Z" fill="#FA3B40" /><path d="M481.9 268.7c7.9 11.1 9.2 18.7 8.7 26.3-0.2 3.1-2.8 4.9-5.8 4-7.8-2.2-14.1-5.2-22.2-16.5-9.8-13.7-9.4-22.3-4.1-26.1 5.4-3.7 13.6-1.4 23.4 12.3zM436.6 320.1c7.9 11.1 9.2 18.7 8.7 26.3-0.2 3.1-2.8 4.9-5.8 4-7.8-2.2-14.1-5.2-22.2-16.5-9.8-13.7-9.4-22.3-4.1-26.1 5.3-3.8 13.6-1.4 23.4 12.3zM414.9 387.2c11.1 8 14.7 14.7 16.6 22.1 0.8 3-1.1 5.5-4.2 5.7-8.1 0.4-15-0.4-26.3-8.5-13.7-9.8-16.1-18.1-12.2-23.4 3.9-5.3 12.5-5.7 26.1 4.1zM419.4 459.6c13.5 2.3 19.6 6.8 24.6 12.6 2 2.4 1.4 5.4-1.3 6.9-7.1 3.9-13.7 6.2-27.4 3.9-16.6-2.8-22.4-9.2-21.2-15.7s8.7-10.6 25.3-7.7zM391.7 507.9c13.6 0 20.5 3.4 26.4 8.3 2.4 2 2.3 5.1-0.1 7-6.4 5-12.4 8.4-26.3 8.4-16.8 0-23.6-5.4-23.6-11.9s6.8-11.9 23.6-11.8zM413.2 564.1c13.3-3 20.8-1.3 27.6 2.2 2.8 1.4 3.4 4.5 1.5 6.9-5.1 6.4-10.2 11-23.7 14.1-16.4 3.8-24.2 0.1-25.7-6.3-1.5-6.5 3.9-13.2 20.3-16.9zM400.8 628.8c11.7-7.1 19.3-7.7 26.9-6.6 3.1 0.4 4.6 3.2 3.5 6.1-2.8 7.6-6.2 13.7-18.1 20.9-14.4 8.7-22.9 7.7-26.3 2s-0.4-13.7 14-22.4zM416.2 684.5c8.4-10.8 15.3-14.1 22.8-15.8 3-0.7 5.5 1.3 5.5 4.4 0.1 8.1-1 15-9.5 26-10.3 13.3-18.7 15.3-23.9 11.3s-5.3-12.6 5.1-25.9zM444.8 732.1c5.8-12.4 11.8-17.1 18.7-20.4 2.8-1.3 5.6 0.1 6.3 3.1 1.9 7.9 2.4 14.8-3.5 27.4-7.1 15.2-14.8 19.1-20.8 16.3-5.9-2.8-7.9-11.2-0.7-26.4zM542.9 750.6c-7.9-11.1-9.2-18.7-8.7-26.3 0.2-3.1 2.8-4.9 5.8-4 7.8 2.2 14.1 5.2 22.2 16.5 9.8 13.7 9.4 22.3 4.1 26.1-5.4 3.8-13.6 1.4-23.4-12.3zM588.2 697.8c-7.9-11.1-9.2-18.7-8.7-26.3 0.2-3.1 2.8-4.9 5.8-4 7.8 2.2 14.1 5.2 22.2 16.5 9.8 13.7 9.4 22.3 4.1 26.1-5.3 3.8-13.6 1.4-23.4-12.3zM605.8 653.8c-11.1-8-14.7-14.7-16.6-22.1-0.8-3 1.1-5.5 4.2-5.7 8.1-0.4 15 0.4 26.3 8.5 13.7 9.8 16.1 18.1 12.2 23.4-3.8 5.4-12.4 5.7-26.1-4.1zM605.4 585.8c-13.5-2.3-19.6-6.8-24.6-12.6-2-2.4-1.4-5.4 1.3-6.9 7.1-3.9 13.7-6.2 27.4-3.9 16.6 2.8 22.4 9.2 21.2 15.7-1.1 6.4-8.7 10.5-25.3 7.7zM635 526.5c-13.6 0-20.5-3.4-26.4-8.3-2.4-2-2.3-5.1 0.1-7 6.4-5 12.4-8.4 26.3-8.4 16.8 0 23.6 5.4 23.6 11.9s-6.8 11.8-23.6 11.8zM611.7 481.3c-13.3 3-20.8 1.3-27.6-2.2-2.8-1.4-3.4-4.5-1.5-6.9 5.1-6.4 10.2-11 23.7-14.1 16.4-3.8 24.2-0.1 25.7 6.3 1.5 6.4-3.9 13.1-20.3 16.9zM623.1 409.1c-11.7 7.1-19.3 7.7-26.9 6.6-3.1-0.4-4.6-3.2-3.5-6.1 2.8-7.6 6.2-13.7 18.1-20.9 14.4-8.7 22.9-7.7 26.3-2 3.4 5.6 0.4 13.7-14 22.4zM608.6 333.4c-8.4 10.8-15.3 14.1-22.8 15.8-3 0.7-5.5-1.3-5.5-4.4-0.1-8.1 1-15 9.5-26 10.3-13.3 18.7-15.3 23.9-11.3 5.2 4 5.3 12.6-5.1 25.9zM580 287.3c-5.8 12.4-11.8 17.1-18.7 20.4-2.8 1.3-5.6-0.1-6.3-3.1-1.9-7.9-2.4-14.8 3.5-27.4 7.1-15.2 14.8-19.1 20.8-16.3 5.9 2.8 7.9 11.1 0.7 26.4z" fill="#000104" /></svg>